{
	"patcher" : 	{
		"fileversion" : 1,
		"rect" : [ 25.0, 69.0, 640.0, 480.0 ],
		"bglocked" : 0,
		"defrect" : [ 25.0, 69.0, 640.0, 480.0 ],
		"openrect" : [ 0.0, 0.0, 0.0, 0.0 ],
		"openinpresentation" : 0,
		"default_fontsize" : 12.0,
		"default_fontface" : 0,
		"default_fontname" : "Arial",
		"gridonopen" : 0,
		"gridsize" : [ 15.0, 15.0 ],
		"gridsnaponopen" : 0,
		"toolbarvisible" : 1,
		"boxanimatetime" : 200,
		"imprint" : 0,
		"enablehscroll" : 1,
		"enablevscroll" : 1,
		"devicewidth" : 0.0,
		"boxes" : [ 			{
				"box" : 				{
					"maxclass" : "button",
					"patching_rect" : [ 169.0, 229.0, 20.0, 20.0 ],
					"numoutlets" : 1,
					"id" : "obj-33",
					"outlettype" : [ "bang" ],
					"numinlets" : 1
				}

			}
, 			{
				"box" : 				{
					"maxclass" : "toggle",
					"patching_rect" : [ 91.0, 53.0, 20.0, 20.0 ],
					"numoutlets" : 1,
					"id" : "obj-26",
					"outlettype" : [ "int" ],
					"presentation_rect" : [ 91.0, 53.0, 0.0, 0.0 ],
					"numinlets" : 1
				}

			}
, 			{
				"box" : 				{
					"maxclass" : "newobj",
					"text" : "metro 100",
					"patching_rect" : [ 87.0, 80.0, 65.0, 20.0 ],
					"numoutlets" : 1,
					"id" : "obj-27",
					"fontname" : "Arial",
					"outlettype" : [ "bang" ],
					"fontsize" : 12.0,
					"presentation_rect" : [ 87.0, 80.0, 0.0, 0.0 ],
					"numinlets" : 2
				}

			}
, 			{
				"box" : 				{
					"maxclass" : "number",
					"patching_rect" : [ 288.0, 34.0, 50.0, 20.0 ],
					"numoutlets" : 2,
					"id" : "obj-21",
					"fontname" : "Arial",
					"outlettype" : [ "int", "bang" ],
					"fontsize" : 12.0,
					"numinlets" : 1
				}

			}
, 			{
				"box" : 				{
					"maxclass" : "newobj",
					"text" : "sel 0",
					"patching_rect" : [ 363.0, 156.0, 36.0, 20.0 ],
					"numoutlets" : 2,
					"id" : "obj-19",
					"fontname" : "Arial",
					"outlettype" : [ "bang", "" ],
					"fontsize" : 12.0,
					"numinlets" : 2
				}

			}
, 			{
				"box" : 				{
					"maxclass" : "toggle",
					"patching_rect" : [ 212.0, 46.0, 20.0, 20.0 ],
					"numoutlets" : 1,
					"id" : "obj-18",
					"outlettype" : [ "int" ],
					"numinlets" : 1
				}

			}
, 			{
				"box" : 				{
					"maxclass" : "newobj",
					"text" : "* 12.7",
					"patching_rect" : [ 210.0, 214.0, 42.0, 20.0 ],
					"numoutlets" : 1,
					"id" : "obj-16",
					"fontname" : "Arial",
					"outlettype" : [ "float" ],
					"fontsize" : 12.0,
					"numinlets" : 2
				}

			}
, 			{
				"box" : 				{
					"maxclass" : "newobj",
					"text" : "sel 0 1",
					"patching_rect" : [ 206.0, 131.0, 46.0, 20.0 ],
					"numoutlets" : 3,
					"id" : "obj-15",
					"fontname" : "Arial",
					"outlettype" : [ "bang", "bang", "" ],
					"fontsize" : 12.0,
					"numinlets" : 1
				}

			}
, 			{
				"box" : 				{
					"maxclass" : "newobj",
					"text" : "counter 1 10",
					"patching_rect" : [ 208.0, 160.0, 77.0, 20.0 ],
					"numoutlets" : 4,
					"id" : "obj-14",
					"fontname" : "Arial",
					"outlettype" : [ "int", "", "", "int" ],
					"fontsize" : 12.0,
					"numinlets" : 5
				}

			}
, 			{
				"box" : 				{
					"maxclass" : "toggle",
					"patching_rect" : [ 208.0, 105.0, 20.0, 20.0 ],
					"numoutlets" : 1,
					"id" : "obj-13",
					"outlettype" : [ "int" ],
					"numinlets" : 1
				}

			}
, 			{
				"box" : 				{
					"maxclass" : "newobj",
					"text" : "metro 100",
					"patching_rect" : [ 208.0, 73.0, 65.0, 20.0 ],
					"numoutlets" : 1,
					"id" : "obj-11",
					"fontname" : "Arial",
					"outlettype" : [ "bang" ],
					"fontsize" : 12.0,
					"numinlets" : 2
				}

			}
, 			{
				"box" : 				{
					"maxclass" : "message",
					"text" : "60 0",
					"patching_rect" : [ 277.0, 296.0, 34.0, 18.0 ],
					"numoutlets" : 1,
					"id" : "obj-10",
					"fontname" : "Arial",
					"outlettype" : [ "" ],
					"fontsize" : 12.0,
					"presentation_rect" : [ 278.0, 196.0, 0.0, 0.0 ],
					"numinlets" : 2
				}

			}
, 			{
				"box" : 				{
					"maxclass" : "message",
					"text" : "60 127",
					"linecount" : 2,
					"patching_rect" : [ 165.0, 331.0, 34.0, 32.0 ],
					"numoutlets" : 1,
					"id" : "obj-9",
					"fontname" : "Arial",
					"outlettype" : [ "" ],
					"fontsize" : 12.0,
					"presentation_rect" : [ 235.0, 233.0, 0.0, 0.0 ],
					"numinlets" : 2
				}

			}
, 			{
				"box" : 				{
					"maxclass" : "number",
					"patching_rect" : [ 208.0, 255.0, 50.0, 20.0 ],
					"numoutlets" : 2,
					"id" : "obj-8",
					"fontname" : "Arial",
					"outlettype" : [ "int", "bang" ],
					"minimum" : 0,
					"fontsize" : 12.0,
					"maximum" : 127,
					"numinlets" : 1
				}

			}
, 			{
				"box" : 				{
					"maxclass" : "newobj",
					"text" : "midiformat",
					"patching_rect" : [ 208.0, 370.0, 100.0, 20.0 ],
					"numoutlets" : 1,
					"id" : "obj-6",
					"fontname" : "Arial",
					"outlettype" : [ "int" ],
					"fontsize" : 12.0,
					"numinlets" : 7
				}

			}
, 			{
				"box" : 				{
					"maxclass" : "message",
					"text" : "60 $1",
					"patching_rect" : [ 208.0, 295.0, 41.0, 18.0 ],
					"numoutlets" : 1,
					"id" : "obj-5",
					"fontname" : "Arial",
					"outlettype" : [ "" ],
					"fontsize" : 12.0,
					"numinlets" : 2
				}

			}
, 			{
				"box" : 				{
					"maxclass" : "newobj",
					"text" : "midiout",
					"patching_rect" : [ 163.0, 420.0, 49.0, 20.0 ],
					"numoutlets" : 0,
					"id" : "obj-1",
					"fontname" : "Arial",
					"fontsize" : 12.0,
					"numinlets" : 1
				}

			}
 ],
		"lines" : [ 			{
				"patchline" : 				{
					"source" : [ "obj-33", 0 ],
					"destination" : [ "obj-8", 0 ],
					"hidden" : 0,
					"midpoints" : [  ]
				}

			}
, 			{
				"patchline" : 				{
					"source" : [ "obj-6", 0 ],
					"destination" : [ "obj-1", 0 ],
					"hidden" : 0,
					"midpoints" : [  ]
				}

			}
, 			{
				"patchline" : 				{
					"source" : [ "obj-10", 0 ],
					"destination" : [ "obj-6", 0 ],
					"hidden" : 0,
					"midpoints" : [  ]
				}

			}
, 			{
				"patchline" : 				{
					"source" : [ "obj-5", 0 ],
					"destination" : [ "obj-6", 0 ],
					"hidden" : 0,
					"midpoints" : [  ]
				}

			}
, 			{
				"patchline" : 				{
					"source" : [ "obj-15", 1 ],
					"destination" : [ "obj-10", 0 ],
					"hidden" : 0,
					"midpoints" : [  ]
				}

			}
, 			{
				"patchline" : 				{
					"source" : [ "obj-15", 0 ],
					"destination" : [ "obj-14", 0 ],
					"hidden" : 0,
					"midpoints" : [  ]
				}

			}
, 			{
				"patchline" : 				{
					"source" : [ "obj-14", 0 ],
					"destination" : [ "obj-16", 0 ],
					"hidden" : 0,
					"midpoints" : [  ]
				}

			}
, 			{
				"patchline" : 				{
					"source" : [ "obj-26", 0 ],
					"destination" : [ "obj-27", 0 ],
					"hidden" : 0,
					"midpoints" : [  ]
				}

			}
, 			{
				"patchline" : 				{
					"source" : [ "obj-21", 0 ],
					"destination" : [ "obj-11", 1 ],
					"hidden" : 0,
					"midpoints" : [  ]
				}

			}
, 			{
				"patchline" : 				{
					"source" : [ "obj-11", 0 ],
					"destination" : [ "obj-13", 0 ],
					"hidden" : 0,
					"midpoints" : [  ]
				}

			}
, 			{
				"patchline" : 				{
					"source" : [ "obj-18", 0 ],
					"destination" : [ "obj-11", 0 ],
					"hidden" : 0,
					"midpoints" : [  ]
				}

			}
, 			{
				"patchline" : 				{
					"source" : [ "obj-19", 0 ],
					"destination" : [ "obj-10", 0 ],
					"hidden" : 0,
					"midpoints" : [  ]
				}

			}
, 			{
				"patchline" : 				{
					"source" : [ "obj-18", 0 ],
					"destination" : [ "obj-19", 0 ],
					"hidden" : 0,
					"midpoints" : [  ]
				}

			}
, 			{
				"patchline" : 				{
					"source" : [ "obj-16", 0 ],
					"destination" : [ "obj-8", 0 ],
					"hidden" : 0,
					"midpoints" : [  ]
				}

			}
, 			{
				"patchline" : 				{
					"source" : [ "obj-13", 0 ],
					"destination" : [ "obj-15", 0 ],
					"hidden" : 0,
					"midpoints" : [  ]
				}

			}
, 			{
				"patchline" : 				{
					"source" : [ "obj-5", 0 ],
					"destination" : [ "obj-9", 1 ],
					"hidden" : 0,
					"midpoints" : [  ]
				}

			}
, 			{
				"patchline" : 				{
					"source" : [ "obj-8", 0 ],
					"destination" : [ "obj-5", 0 ],
					"hidden" : 0,
					"midpoints" : [  ]
				}

			}
 ]
	}

}
